<?xml version="1.0" encoding="UTF-8" standalone="no"?>
<!DOCTYPE svg PUBLIC "-//W3C//DTD SVG 1.1//EN" "http://www.w3.org/Graphics/SVG/1.1/DTD/svg11.dtd">
<svg width="100%" height="100%" viewBox="0 0 3133 4979" version="1.1" xmlns="http://www.w3.org/2000/svg" xmlns:xlink="http://www.w3.org/1999/xlink" xml:space="preserve" xmlns:serif="http://www.serif.com/" style="fill-rule:evenodd;clip-rule:evenodd;stroke-linejoin:round;stroke-miterlimit:2;">
    <g transform="matrix(1,0,0,1,-900,-2.23684)">
        <g transform="matrix(2.26669,0,0,2.26669,-1836.06,-2179.47)">
            <g transform="matrix(0.997411,-0.0719111,0.0719111,0.997411,-90.4108,119.685)">
                <path d="M1635.83,1659.42C1586.2,1659.42 1542.38,1653.93 1504.37,1642.93C1466.37,1631.94 1433.07,1616.39 1404.49,1596.29C1375.9,1576.18 1350.3,1552.63 1327.69,1525.61L1445.48,1393.69C1476.89,1433.89 1509.71,1460.43 1543.95,1473.31C1578.19,1486.19 1610.38,1492.63 1640.54,1492.63C1652.48,1492.63 1663.16,1491.53 1672.58,1489.33C1682,1487.13 1689.23,1483.52 1694.25,1478.5C1699.28,1473.47 1701.79,1466.56 1701.79,1457.76C1701.79,1449.6 1699.12,1442.69 1693.78,1437.03C1688.44,1431.38 1681.37,1426.51 1672.58,1422.43C1663.78,1418.34 1654.2,1414.89 1643.84,1412.06C1633.47,1409.23 1623.42,1406.88 1613.68,1404.99C1603.95,1403.11 1595.31,1401.23 1587.77,1399.34C1550.08,1390.55 1517.09,1379.87 1488.83,1367.3C1460.56,1354.74 1437,1339.66 1418.15,1322.07C1399.3,1304.48 1385.33,1284.38 1376.22,1261.76C1367.11,1239.14 1362.55,1213.7 1362.55,1185.43C1362.55,1153.39 1369.93,1124.18 1384.7,1097.79C1399.46,1071.41 1419.25,1048.79 1444.06,1029.95C1468.88,1011.1 1497.15,996.65 1528.87,986.599C1560.6,976.547 1593.42,971.521 1627.35,971.521C1676.98,971.521 1718.44,976.076 1751.74,985.185C1785.03,994.294 1812.99,1007.33 1835.6,1024.29C1858.22,1041.25 1877.69,1061.04 1894.03,1083.66L1775.29,1197.68C1761.47,1184.49 1747.02,1173.65 1731.95,1165.17C1716.87,1156.69 1701.32,1150.41 1685.3,1146.32C1669.28,1142.24 1653.42,1140.2 1637.71,1140.2C1623.26,1140.2 1611.01,1141.3 1600.96,1143.5C1590.91,1145.7 1583.06,1149.15 1577.4,1153.86C1571.75,1158.57 1568.92,1165.01 1568.92,1173.18C1568.92,1181.35 1572.54,1188.1 1579.76,1193.44C1586.98,1198.78 1596.09,1203.34 1607.09,1207.1C1618.08,1210.87 1629.08,1213.86 1640.07,1216.06C1651.06,1218.26 1660.33,1219.98 1667.87,1221.24C1702.42,1227.52 1734.14,1236.16 1763.04,1247.15C1791.94,1258.15 1817.23,1271.97 1838.9,1288.62C1860.57,1305.26 1877.22,1326 1888.84,1350.81C1900.47,1375.62 1906.28,1404.99 1906.28,1438.92C1906.28,1487.29 1894.18,1527.81 1870,1560.48C1845.81,1593.15 1813.3,1617.8 1772.47,1634.45C1731.63,1651.1 1686.09,1659.42 1635.83,1659.42Z" style="fill:white;fill-rule:nonzero;"/>
            </g>
            <g transform="matrix(0.99545,-0.0952861,0.0952861,0.99545,-115.552,220.512)">
                <path d="M2146.57,1650L2146.57,1163.76L1943.03,1163.76L1943.03,990.368L2559.31,990.368L2559.31,1163.76L2350.12,1163.76L2350.12,1650L2146.57,1650Z" style="fill:white;fill-rule:nonzero;"/>
            </g>
            <g transform="matrix(0.992424,0.122859,-0.122859,0.992424,311.026,-174.004)">
                <path d="M1200,2400L1464.8,1740.37L1624.99,1740.37L1887.9,2400L1686.24,2400L1580.7,2111.65C1573.79,2092.17 1567.82,2075.52 1562.8,2061.7C1557.77,2047.88 1553.37,2034.85 1549.61,2022.6C1545.84,2010.35 1542.07,1997.15 1538.3,1983.02C1534.53,1968.88 1530.76,1952.08 1526.99,1932.6L1559.03,1932.6C1555.26,1952.08 1551.49,1968.88 1547.72,1983.02C1543.95,1997.15 1540.03,2010.35 1535.94,2022.6C1531.86,2034.85 1527.15,2047.88 1521.81,2061.7C1516.47,2075.52 1510.34,2092.17 1503.43,2111.65L1397.89,2400L1200,2400ZM1331.93,2302L1391.29,2163.47L1697.55,2163.47L1751.26,2302L1331.93,2302Z" style="fill:white;fill-rule:nonzero;"/>
            </g>
            <g transform="matrix(0.998449,0.0556802,-0.0556802,0.998449,118.799,-123.524)">
                <path d="M2095.22,2212.48L2026.42,2061.7L2340.22,1740.37L2571.09,1740.37L2095.22,2212.48ZM1953.87,2400L1953.87,1740.37L2157.41,1740.37L2157.41,2400L1953.87,2400ZM2367.55,2400L2128.2,2088.09L2260.12,1974.07L2598.42,2400L2367.55,2400Z" style="fill:white;fill-rule:nonzero;"/>
            </g>
            <g transform="matrix(0.985989,-0.166808,0.166808,0.985989,-400.075,296.107)">
                <path d="M1589.18,2742.91L1606.14,2490.37L1792.73,2490.37L1711.69,2742.91L1589.18,2742.91Z" style="fill:white;fill-rule:nonzero;"/>
            </g>
            <g transform="matrix(0.998252,0.059101,-0.059101,0.998252,170.311,-117.981)">
                <path d="M1938.79,3150L1938.79,2490.37L2229.03,2490.37C2278.66,2490.37 2324.2,2498.53 2365.66,2514.87C2407.13,2531.2 2443.25,2553.97 2474.03,2583.19C2504.82,2612.4 2528.53,2647.11 2545.18,2687.32C2561.83,2727.52 2570.15,2771.81 2570.15,2820.18C2570.15,2867.93 2561.83,2912.06 2545.18,2952.58C2528.53,2993.1 2504.82,3027.97 2474.03,3057.18C2443.25,3086.39 2407.13,3109.17 2365.66,3125.5C2324.2,3141.83 2278.66,3150 2229.03,3150L1938.79,3150ZM2142.33,3024.67L2107.47,2976.61L2224.31,2976.61C2245.05,2976.61 2263.89,2972.68 2280.85,2964.83C2297.82,2956.98 2312.58,2946.14 2325.14,2932.32C2337.71,2918.5 2347.45,2902.01 2354.36,2882.85C2361.27,2863.69 2364.72,2842.8 2364.72,2820.18C2364.72,2797.57 2361.27,2776.68 2354.36,2757.52C2347.45,2738.36 2337.71,2721.87 2325.14,2708.05C2312.58,2694.23 2297.82,2683.39 2280.85,2675.54C2263.89,2667.68 2245.05,2663.76 2224.31,2663.76L2104.64,2663.76L2142.33,2617.58L2142.33,3024.67Z" style="fill:white;fill-rule:nonzero;"/>
            </g>
        </g>
    </g>
</svg>
